<svg id="shophia" xmlns="http://www.w3.org/2000/svg" viewBox="0 0 1109.6 360.34"><path d="M356.1 0c2.41.53 4.81 1.08 7.23 1.58 37 7.58 56 35.71 49 73 3.33.78 6.75 1.34 10 2.38 8.36 2.68 13.22 8.38 12.49 17.07a107.18 107.18 0 01-5.1 23.24c-2.6 8.21-6.31 16.08-9.52 24.1 0 .09.15.27 0 .05 7.46-2.31 14.7-5.09 22.2-6.69a38.68 38.68 0 0114.35 0c13.84 2.4 21.32 13 18.83 26.83a102.46 102.46 0 01-5.78 19.55c-6.68 16.85-13.83 33.51-20.75 50.27-1.46 3.52-3.51 7.3-.3 10.75 3.39 3.65 7.88 3.4 12.11 1.82 11.91-4.48 20-12.28 23.23-25.19 6.84-27.37 20-51.07 42.53-68.78 14.25-11.22 30.64-16.46 48.82-16 19.84.5 33.39 13.59 34.67 33.47a79.57 79.57 0 01-4.93 32.35c-8.42 23.43-21.48 43.56-41.84 58.37-14.19 10.32-30.08 15.5-47.74 14.75-15.91-.67-27-9.17-31.73-24.26-.3-.95-.67-1.88-.92-2.58-5.36 4.87-10.33 10.29-16.17 14.52-12.46 9.06-26.2 14.61-42.07 11.57-12.05-2.32-18.7-9.7-18.23-21.89A66.26 66.26 0 01411 229.5c7.05-18.31 14.86-36.33 22.36-54.47 1.48-3.57 3.28-7.29.07-10.73s-7.33-2.91-11.22-1.72c-7.9 2.43-14 6.49-17.26 15-7.64 20-16.08 39.79-24.19 59.65-.57 1.39-1.17 2.77-1.6 4.2-2.82 9.16 0 13.2 9.52 13.88 1 .07 2 .17 3.94.34-2.43 5.1-4.58 9.85-7 14.46-.41.78-2 1.28-3.06 1.31-8.93.28-18 1.34-26.78.36-11.25-1.26-16.91-8.52-15.71-19.79a89.28 89.28 0 015.72-23.09c15.61-39.45 31.65-78.72 47.54-118 .55-1.36 1.1-2.73 2.17-5.41-2.28 2-3.54 3.09-4.8 4.17-22.34 19.19-48.3 25.83-76.82 20.15-19.8-3.94-29.83-19.31-25.45-37.33 1.63-6.73 6-12.81 9.19-19.13.71-1.39 1.94-2.52 3.61-4.63-11.16 3.46-21.36 6.35-31.29 10.06-1.62.6-2.4 4.7-2.72 7.29a101.14 101.14 0 006.46 50c4.13 10.5 9.49 20.52 14 30.89 16.41 37.8 19.28 76.12 1.71 114.19-19.52 42.28-53.89 66.26-98.76 75.69a157 157 0 01-86.62-6c-30.75-11.06-49.35-37.82-48.68-68.52 1-43.48 34.73-84.63 76.63-92.67a76.83 76.83 0 0123.29-.88c10.79 1.29 16.54 9.81 15.66 20.71-1.78 22.24-24 43.1-46.35 43.48-12.51.21-18.78-6.05-18.67-18.64v-5.74c-1.82 1.08-3.39 1.84-4.78 2.85-18.06 13.12-25.63 31.26-23.66 53 2.11 23.42 15.11 39.89 36.42 48.57 44 18 105.21.74 124.06-60.1 9.74-31.45 5.11-62.21-6.49-92.37-5.3-13.79-10.93-27.51-15.16-41.64-2.39-8-2.9-16.75-3-25.17s1.32-16.82 2.14-26c-8.68-1-17.86-2.41-27.1-3.2-30.39-2.61-60.23-.55-88.76 11.43-12.59 5.29-24 12.42-33.32 22.45-15.56 16.77-20.98 36.31-14.37 58.6a41.39 41.39 0 0017.53 23.54c-9.11 8.31-16.66 9.59-26.55 4.6-30.16-15.2-49.59-57.07-40.75-89C7.76 95.71 21 81.2 40.1 72.19 59.97 62.74 81.31 59.62 102.92 61c27.07 1.68 54 5.06 81 7.55 11.6 1.07 23.22 1.86 34.85 2.48a5.91 5.91 0 004.58-2.54c19.2-37.38 50.87-57.37 91-65.55C320.27 1.71 326.21 1 332.1 0zm-11.57 31.59l5.8 15.09-2.86.81c-20.43 5.66-33.13 19.23-38.79 39.23-4 14.11 3.14 24.94 17.5 25.9 23.42 1.57 43.61-5.87 57.38-25.74 19.75-28.5 6-62.59-27.61-69.5a65.76 65.76 0 00-36.89 2.75c-19.68 7.34-34.39 20.27-44.35 40.09a393.06 393.06 0 0069.82-28.63zM575.01 162c-.07-1.42-.06-2.76-.22-4.08-1.1-9.21-6.16-11.64-13.51-6a59.34 59.34 0 00-11.12 11.38c-15.48 20.71-25.31 44.09-31 69.16a56.15 56.15 0 00-.81 17.32c.61 6.72 5.89 9.31 11.5 5.55 4.61-3.09 9.28-7 12.16-11.58 7.74-12.38 15.25-25 21.48-38.17A123.27 123.27 0 00575.01 162zm248.86-20.47c7.81-2.42 15.08-5.21 22.61-6.81a38.69 38.69 0 0114.35.06c13.61 2.38 21.07 12.81 18.78 26.43a93.47 93.47 0 01-5.38 18.62c-6.87 17.32-14.17 34.46-21.27 51.69-1.45 3.53-3.45 7.3-.16 10.72s7.5 3.19 11.66 1.84c9.48-3.08 17.06-8.83 21-18 8.49-19.52 16.52-39.25 24.47-59 4.17-10.36.77-14.41-13-15.47 2.29-4.79 4.37-9.43 6.74-13.9.51-.95 2-1.59 3.2-1.9a58.8 58.8 0 0128.21-.57c10.69 2.46 16.28 10.4 14.45 21.61a115.1 115.1 0 01-6.23 22.51c-6.61 17.24-13.82 34.25-20.77 51.36a43.38 43.38 0 00-2 5.65c-1.22 4.87 1.11 8.42 6.17 8.54a22.65 22.65 0 009.66-1.73c10.28-4.66 17.23-11.85 20.46-23.44 7.4-26.61 20-50.43 42-68.16a79.16 79.16 0 0132.46-15.91c16.27-3.69 23.08-2.49 36.33 6.9.39-6.31 4.76-5.94 9.24-5.88 10.3.14 20.61 0 31.69 0-.89 2.48-1.48 4.33-2.22 6.12q-17.43 42.21-34.89 84.4c-.89 2.16-1.75 4.32-2.52 6.52-2.69 7.61 1.49 12.48 9.64 10.84 9.63-1.93 16.88-7.57 22.37-15.58 1-1.49 1.93-3 2.92-4.63 6.91 7.49 7.26 9.08 2.07 17-10.8 16.52-25.72 27.26-45.27 31-16.38 3.1-26.47-1.94-33.83-16.5-5.58 3.51-11 7.25-16.76 10.48-7.8 4.4-16.16 6.94-25.28 6.62-14.38-.5-24.66-8.3-28.69-22-.36-1.24-.77-2.46-1.33-4.25-8.63 10.59-18.7 18.48-31.09 22.72a61.91 61.91 0 01-18 3.39c-14.5.43-21.19-4.52-26.36-17.46-8.2 4.67-16.26 9.89-24.85 14a40.49 40.49 0 01-25.89 2.87c-12.18-2.5-18.86-10-18.25-22.42a66 66 0 014.53-20.27c7.08-18.31 14.87-36.34 22.37-54.48 1.48-3.57 3.28-7.29.07-10.73s-7.33-2.91-11.22-1.72c-7.9 2.43-14 6.49-17.26 15-7.64 20.05-16.08 39.79-24.2 59.66-.56 1.38-1.16 2.76-1.6 4.19-2.8 9.14 0 13.2 9.53 13.88 1 .07 2 .17 3.94.35-2.43 5.09-4.58 9.84-7 14.45-.41.78-2 1.28-3.06 1.31-8.94.28-18 1.34-26.79.36-11.24-1.26-16.9-8.52-15.7-19.8a89.09 89.09 0 015.73-23.09c15.67-39.6 31.79-79 47.75-118.5.38-.92.78-1.84 1.13-2.77 3.74-9.76 1-14.21-9.27-15-.94-.07-1.88-.21-3.43-.38 2.3-4.92 4.28-9.44 6.57-13.8a4.41 4.41 0 013.24-1.76c8.76-.39 17.65-1.59 26.27-.59 12.93 1.51 19.07 10.24 16.52 23-1.78 8.9-5.08 17.52-8 26.14-1.8 5.58-4.33 10.94-6.56 16.27zm167.35 92c-.26 14.62 5.74 20 15.76 16.56 7.35-2.55 13.9-7.43 20.72-11.41.86-.5 1.35-1.83 1.77-2.87q14.85-36.72 29.66-73.46c2.58-6.4.83-9.48-6.1-10.16a27 27 0 00-6.94.37c-11 1.8-19 8.57-24.52 17.42-8.66 13.92-16.58 28.38-23.82 43.1-3.64 7.44-5.13 15.97-6.5 20.42zm-365.93-81.84c2.28-5 4.26-9.5 6.48-13.92a4.43 4.43 0 012.69-1.8c9.84-2.51 19.75-3 29.63-.4 7.34 1.9 12.32 6.41 13.87 14.76 2.72-1.89 4.92-3.5 7.2-5 10.17-6.68 20.91-11.67 33.48-11.34 16.62.43 28.55 11.32 30.49 27.9a66.41 66.41 0 01-3 28.59c-8.16 25-20.29 47.47-41.24 64.14-13.21 10.51-28.22 16.82-45.35 17.39-8.32.27-15.87-1.55-22.3-8.32-1.52 3.7-2.91 7-4.22 10.29q-4.61 11.58-9.17 23.19c-5.17 13.08-2.83 16.95 11.79 18.17-2.33 4.6-4.48 9-6.77 13.29a3.44 3.44 0 01-1.95 1.33c-8.7 2.54-17.46 4.08-26.58 2.32-13.35-2.57-19.41-10.55-16.82-23.94a130.48 130.48 0 017-23.34c15.57-39.08 31.47-78 47.23-117a28.36 28.36 0 001.5-4.74c1.39-6.6-1.65-10.62-8.43-11.22-1.6-.18-3.21-.22-5.53-.35zM652.09 254c12.75-.21 21.26-6 28-14.54 13.87-17.52 24.41-36.9 30.57-58.41a45.76 45.76 0 001.18-16.7c-.26-2.66-3.13-6.06-5.7-7.3-7.51-3.64-28 5.54-31.09 13.29-10.09 25.29-20.18 50.66-30.45 75.86-1.59 3.88-.33 5.6 3 6.74a32.37 32.37 0 004.49 1.06z"/><path d="M977.24 99.73A21.57 21.57 0 11955.94 78a21.32 21.32 0 0121.3 21.73z"/></svg>
