<svg viewBox="0 0 50 50" xmlns="http://www.w3.org/2000/svg" xmlns:xlink="http://www.w3.org/1999/xlink"><style>:root>svg{display:none}:root>svg:target{display:block}</style><svg viewBox="0 0 980 980" id="clock"><path d="M490 0C219.8 0 0 219.8 0 490s219.8 490 490 490 490-219.8 490-490S760.2 0 490 0zm0 896.3C266 896.3 83.7 714 83.7 490S266 83.7 490 83.7 896.3 266 896.3 490 714 896.3 490 896.3zM315.3 490a35 35 0 100 70h210a35 35 0 0035-35V245.1a35 35 0 10-70 0V490z"/></svg><svg viewBox="0 0 980 986.2" id="close"><path d="M123.3 986.2c-30.8 0-61.6-12.3-86.3-37a126.4 126.4 0 010-178.7L764.3 43.2A126.4 126.4 0 01943 221.9L209.6 949.2a121.7 121.7 0 01-86.3 37z"/><path d="M850.6 980c-30.8 0-61.6-12.3-86.3-37L37 215.7A126.4 126.4 0 01215.7 37L943 764.3a126.4 126.4 0 010 178.7 125.2 125.2 0 01-92.4 37z"/></svg><svg viewBox="0 0 980.1 564.9" id="down"><path d="M11.8 93.5L96 11.4a41 41 0 0156.7 0l341 304.1L827.6 18a40.8 40.8 0 0156.6 0l84.3 82.1a38.4 38.4 0 01.9 54.3l-1 .9-446.6 398.1a40.8 40.8 0 01-56.7 0l-7-6.7-446.2-398a38.3 38.3 0 01-1.2-54l1.2-1.2z"/></svg><svg viewBox="0 0 274.2 512" id="facebook"><path d="M256.3 288l14.2-92.7h-89v-60c0-25.4 12.5-50.1 52.3-50.1h40.4v-79S237.5 0 202.5 0C129.2 0 81.4 44.4 81.4 124.7v70.6H0V288h81.4v224h100.2V288z"/></svg><svg viewBox="0 0 980 980" id="feed"><path d="M806.5 980C805.7 540.5 422.2 181.3 0 180.5V0c518.1 0 980 440.8 980 980zm-148.8-.1H484.2c.6-107.9-54.2-228.7-141-319.1C257 569.6 104.1 512.2.4 512.7V332.3c323.6 7 650.7 312.6 657.3 647.6zM123 734.9A122.5 122.5 0 11.6 857.4 122.4 122.4 0 01123 734.9z"/></svg><svg viewBox="0 0 124 112" id="hamburger"><path d="M112 0H12a12 12 0 000 24h100a12 12 0 000-24zm0 44H12a12 12 0 000 24h100a12 12 0 100-24zm0 44H12a12 12 0 000 24h100a12 12 0 000-24z"/></svg><svg viewBox="0 0 438.5 438.5" id="instagram"><path d="M422 16.5Q405.4 0 382.3 0h-326Q33.1 0 16.5 16.5T0 56.2v326q0 23.2 16.6 39.8t39.7 16.5h326q23.1 0 39.7-16.5t16.5-39.7v-326q0-23.2-16.5-39.8zM157.5 158q25.8-25 62-25 36.6 0 62.4 25t25.9 60.4q0 35.4-25.9 60.4t-62.3 25q-36.3 0-62.1-25t-25.9-60.4q0-35.4 25.9-60.4zm231.4 212.6a16.6 16.6 0 01-5.2 12.4 17 17 0 01-12.2 5H66.2a17 17 0 01-17.4-17.4v-185h40.3a123 123 0 00-5.7 37.3q0 54.9 40 93.5t96.1 38.8a137.2 137.2 0 0068.6-17.7 133.2 133.2 0 0049.6-48.1A126.5 126.5 0 00356 223a122.8 122.8 0 00-5.7-37.4h38.5v185zm0-255a19.5 19.5 0 01-19.7 19.7h-49.7a19.5 19.5 0 01-19.7-19.7v-47a19.1 19.1 0 015.7-14 18.8 18.8 0 0114-5.8h49.7a18.8 18.8 0 0114 5.9 19.2 19.2 0 015.7 13.8z"/></svg><svg viewBox="0 0 496 496" id="life-ring"><path d="M248 496a248 248 0 100-496 248 248 0 000 496zm-103.4-76.7l53.4-53.4a128.3 128.3 0 00100 0l53.4 53.4a200.4 200.4 0 01-206.8 0zM328 248a80 80 0 11-80-80 80 80 0 0180 80zm91.3 103.4L365.9 298a128.4 128.4 0 000-100l53.4-53.4a200.4 200.4 0 010 206.8zM351.4 76.7L298 130.1a128.4 128.4 0 00-100 0l-53.4-53.4a200.4 200.4 0 01206.8 0zM76.7 144.6l53.4 53.4a128.4 128.4 0 000 100l-53.4 53.4a200.4 200.4 0 010-206.8z"/></svg><svg viewBox="0 0 512 512" id="phone"><path d="M497.4 361.8l-112-48a24 24 0 00-28 6.9l-49.6 60.6A370.6 370.6 0 01130.6 204l60.6-49.6a24 24 0 006.9-28l-48-112A24.2 24.2 0 00122.6.6l-104 24A24 24 0 000 48a464 464 0 00464 464 24 24 0 0023.4-18.6l24-104a24.3 24.3 0 00-14-27.6z"/></svg><svg viewBox="0 0 496 496" id="pinterest"><path d="M496 248c0 137-111 248-248 248a247 247 0 01-73.4-11.1c10.1-16.5 25.2-43.5 30.8-65l15.4-59c8.1 15.4 31.7 28.5 56.8 28.5 74.8 0 128.7-68.8 128.7-154.3 0-81.9-66.9-143.2-152.9-143.2-107 0-163.9 71.8-163.9 150.1 0 36.4 19.4 81.7 50.3 96.1 4.7 2.2 7.2 1.2 8.3-3.3l6.9-28.1a7.4 7.4 0 00-1.7-7.1A97.7 97.7 0 01135 243c0-54.7 41.4-107.6 112-107.6 60.9 0 103.6 41.5 103.6 100.9 0 67.1-33.9 113.6-78 113.6-24.3 0-42.6-20.1-36.7-44.8 7-29.5 20.5-61.3 20.5-82.6 0-19-10.2-34.9-31.4-34.9-24.9 0-44.9 25.7-44.9 60.2 0 22 7.4 36.8 7.4 36.8l-29 123.2c-5 21.4-3 51.6-.9 71.2A248.1 248.1 0 11496 248z"/></svg><svg viewBox="0 0 980 980" id="plane"><path d="M970.6 121.3q22.3-67-8.4-103.5-36.3-30.7-103.5-8.4T738.4 85l-112 111.8-465-111.2c-7.4-2.3-14.4-.5-21 5.6L51 180.7q-7.6 7.7-6.3 19a23.4 23.4 0 0012 16.7l355.1 195.1-181 181.1-135.6-37c-.9-.6-2.8-.8-5.6-.8-6.5 0-11.9 2.1-16 6.3l-67.2 68A23.7 23.7 0 000 646.4c.9 7.5 4 12.8 9 16.1l176.3 132.1 132 176.2a25.1 25.1 0 0016.9 9.1h1.4c6.5 0 11.9-2 16-6.3l67.2-67a21.3 21.3 0 005.6-21.8l-37.1-135.7 181-181 195.2 355.1c2.8 6.1 7.7 9.8 14.7 11.2a14.5 14.5 0 004.9.7c5.6 0 10-1.4 13.3-4.2l89.5-67q11.9-9.8 8.4-23.2l-112-486.6 112.7-112.6q53-53 75.5-120.3z"/></svg><svg viewBox="0 0 512 415.8" id="twitter"><path d="M459.4 103.6c.3 4.6.3 9.1.3 13.7 0 138.7-105.6 298.5-298.6 298.5A296.5 296.5 0 010 368.8a215.8 215.8 0 0025.3 1.2 210.2 210.2 0 00130.3-44.8 105.1 105.1 0 01-98.1-72.8 132.7 132.7 0 0019.8 1.7 111.1 111.1 0 0027.7-3.6 105 105 0 01-84.2-103v-1.3a105.6 105.6 0 0047.5 13.3A105 105 0 0135.7 19.2 298.3 298.3 0 00252.1 129a118.8 118.8 0 01-2.6-24 105 105 0 01181.6-71.8 206.7 206.7 0 0066.6-25.3 104.7 104.7 0 01-46.1 57.7A210.3 210.3 0 00512 49.4a225.6 225.6 0 01-52.6 54.2z"/></svg><svg viewBox="0 0 956.8 980" id="up"><path d="M161.6 1.3a178.2 178.2 0 00-148.4 111C0 145 1 117.7.2 477.6c-.5 238.9 0 330 1.6 338.8A100.8 100.8 0 0028 864.8a102.3 102.3 0 0045.8 23c16.5 3 61.8 2.7 75.2-1a91 91 0 0060.1-48.6l6.7-13.7.6-212 .4-212 280 279.5C715.1 897.7 779 960.7 787.3 965c17.3 9 32.7 13.6 50.8 14.8 33 2 61.7-8.9 85.7-32.6 22.5-22.5 33-47.5 33-79.4 0-21.1-3.8-36.4-13.7-55.1-6.9-13.3-29.7-36.6-297.6-304.4l-290.1-290h225c144.7 0 228.8-.7 235.8-2a91.6 91.6 0 0064.5-49.6l6.7-13.7.6-38a280 280 0 00-1.6-47.3 93.6 93.6 0 00-58.1-63.3L817 .2 497.4 0c-176-.2-327 .4-335.8 1.2z"/></svg></svg>