<svg id="Слой_1" data-name="Слой 1" xmlns="http://www.w3.org/2000/svg" viewBox="0 0 979.95 986.17"><title>close</title><path d="M133.3,993.1c-30.8,0-61.6-12.3-86.3-37a126.44,126.44,0,0,1,0-178.7L774.3,50.1A126.36,126.36,0,0,1,953,228.8L219.6,956.1C194.9,980.8,164.1,993.1,133.3,993.1Z" transform="translate(-10.03 -6.93)"/><path d="M860.6,986.9c-30.8,0-61.6-12.3-86.3-37L47,222.6A126.36,126.36,0,0,1,225.7,43.9L953,771.2a126.44,126.44,0,0,1,0,178.7C928.4,974.6,897.5,986.9,860.6,986.9Z" transform="translate(-10.03 -6.93)"/></svg>