<svg id="instagram" xmlns="http://www.w3.org/2000/svg" viewBox="0 0 438.53 438.54"><title>instagram</title><path d="M428.44,23Q411.9,6.45,388.76,6.47h-326Q39.58,6.47,23,23T6.46,62.71V388.76q0,23.12,16.56,39.68T62.71,445H388.76q23.12,0,39.68-16.56T445,388.76v-326Q445,39.58,428.44,23ZM163.93,164.49q25.83-25,62.09-25,36.54,0,62.38,25t25.84,60.39q0,35.38-25.84,60.38t-62.38,25q-36.26,0-62.09-25t-25.85-60.38Q138.08,189.48,163.93,164.49Zm231.4,212.56a16.64,16.64,0,0,1-5.14,12.42,17,17,0,0,1-12.28,5H72.71a17.08,17.08,0,0,1-17.42-17.42V192H95.54a123.06,123.06,0,0,0-5.7,37.4q0,54.84,40,93.51T226,361.64a137.23,137.23,0,0,0,68.53-17.71,133.18,133.18,0,0,0,49.68-48.11,126.52,126.52,0,0,0,18.27-66.38,122.82,122.82,0,0,0-5.72-37.4h38.55v185Zm0-255a19.52,19.52,0,0,1-19.71,19.7H326a19.5,19.5,0,0,1-19.7-19.7V75A19.15,19.15,0,0,1,312,61.14a18.78,18.78,0,0,1,14-5.85h49.67a18.77,18.77,0,0,1,14,5.85A19.16,19.16,0,0,1,395.33,75Z" transform="translate(-6.46 -6.47)"/></svg>