<svg id="life-ring" xmlns="http://www.w3.org/2000/svg" viewBox="0 0 496 496"><title>life-ring</title><path d="M254,502c137,0,248-111,248-248S391,6,254,6,6,117,6,254,117,502,254,502ZM150.6,425.28,204,371.87a128.34,128.34,0,0,0,100,0l53.41,53.41a200.37,200.37,0,0,1-206.8,0ZM334,254a80,80,0,1,1-80-80A80.09,80.09,0,0,1,334,254Zm91.28,103.4L371.87,304a128.38,128.38,0,0,0,0-100l53.41-53.41A200.37,200.37,0,0,1,425.28,357.4ZM357.4,82.72,304,136.13a128.38,128.38,0,0,0-100,0L150.6,82.72A200.37,200.37,0,0,1,357.4,82.72ZM82.72,150.6,136.13,204a128.38,128.38,0,0,0,0,100L82.72,357.4A200.37,200.37,0,0,1,82.72,150.6Z" transform="translate(-6 -6)"/></svg>