<svg id="plane" xmlns="http://www.w3.org/2000/svg" viewBox="0 0 979.98 980.01"><title>plane</title><path d="M975.56,126.3q22.35-67.05-8.4-103.5-36.3-30.75-103.5-8.4T743.36,90L631.46,201.8l-465-111.2c-7.5-2.3-14.5-.5-21,5.6L56,185.7q-7.65,7.65-6.3,18.9a23.41,23.41,0,0,0,11.9,16.8l355.2,195.1-181,181.1-135.6-37.1c-.9-.5-2.8-.7-5.6-.7-6.5,0-11.9,2.1-16.1,6.3L11.36,634c-4.7,5.6-6.8,11.4-6.3,17.5.9,7.5,4,12.8,9.1,16.1l176.2,132.1,132.1,176.2a25.14,25.14,0,0,0,16.8,9.1h1.4c6.5,0,11.9-2.1,16.1-6.3l67.1-67.1c6.1-6.5,7.9-13.8,5.6-21.7l-37.1-135.7,181.1-181.1,195.1,355.2c2.8,6.1,7.7,9.8,14.7,11.2a14.48,14.48,0,0,0,4.9.7c5.6,0,10-1.4,13.3-4.2L891,868.9q11.85-9.75,8.4-23.1L787.46,359.2l112.6-112.6Q953.16,193.5,975.56,126.3Z" transform="translate(-4.99 -4.99)"/></svg>