<svg id="twitter" xmlns="http://www.w3.org/2000/svg" viewBox="0 0 512 415.84"><title>twitter</title><path d="M464.39,107.71c.33,4.55.33,9.1.33,13.65,0,138.72-105.58,298.56-298.56,298.56A296.53,296.53,0,0,1,5,372.81a215.83,215.83,0,0,0,25.34,1.3,210.18,210.18,0,0,0,130.28-44.83,105.13,105.13,0,0,1-98.11-72.77,132.7,132.7,0,0,0,19.81,1.62A111.11,111.11,0,0,0,110,254.56a105,105,0,0,1-84.14-103v-1.3a105.61,105.61,0,0,0,47.43,13.32A105.09,105.09,0,0,1,40.76,23.25,298.28,298.28,0,0,0,257.12,133.06a118.8,118.8,0,0,1-2.59-24,105,105,0,0,1,181.6-71.79,206.66,206.66,0,0,0,66.6-25.34A104.67,104.67,0,0,1,456.6,69.7,210.3,210.3,0,0,0,517,53.46a225.62,225.62,0,0,1-52.63,54.26Z" transform="translate(-5.02 -4.08)"/></svg>