<svg id="Слой_1" data-name="Слой 1" xmlns="http://www.w3.org/2000/svg" viewBox="0 0 956.75 980"><title>up</title><path d="M183.21,11.25a178.24,178.24,0,0,0-148.37,111C21.57,155,22.57,127.65,21.77,487.74c-.4,238.85,0,329.92,1.61,338.77,3.22,16.49,14.48,37.2,26.34,48.25,11.46,10.66,30.16,20.11,45.84,23.12,16.49,3,61.72,2.61,75.19-1,26.94-7,48.05-24.13,60.12-48.66l6.63-13.67.6-212.11.4-211.91L518.57,690C736.71,907.74,800.65,970.67,808.89,975.09c17.29,9,32.77,13.47,50.87,14.68,33,2,61.72-8.85,85.65-32.57,22.52-22.52,33-47.45,33-79.42,0-21.11-3.82-36.39-13.67-55.09C957.87,809.42,935,786.1,667.15,518.3L377,228.38H602c144.76,0,228.8-.8,235.83-2,27.75-5.23,51.87-23.93,64.54-49.66L909,163l.6-38c.4-24.33-.2-41.42-1.61-47.25-7.24-28.55-28.75-51.87-58.1-63.33l-11.26-4.22L519,10C343.05,9.84,192.06,10.44,183.21,11.25Z" transform="translate(-21.63 -10)"/></svg>